<svg width="17" height="12" viewBox="0 0 17 12" fill="none" xmlns="http://www.w3.org/2000/svg">
<path fill-rule="evenodd" clip-rule="evenodd" d="M16 0.666687H15C14.4477 0.666687 14 1.1144 14 1.66669V10.3334C14 10.8856 14.4477 11.3334 15 11.3334H16C16.5523 11.3334 17 10.8856 17 10.3334V1.66669C17 1.1144 16.5523 0.666687 16 0.666687ZM10.3333 3.00002H11.3333C11.8856 3.00002 12.3333 3.44774 12.3333 4.00002V10.3334C12.3333 10.8856 11.8856 11.3334 11.3333 11.3334H10.3333C9.78105 11.3334 9.33333 10.8856 9.33333 10.3334V4.00002C9.33333 3.44774 9.78105 3.00002 10.3333 3.00002ZM6.66667 5.33335H5.66667C5.11438 5.33335 4.66667 5.78107 4.66667 6.33335V10.3334C4.66667 10.8856 5.11438 11.3334 5.66667 11.3334H6.66667C7.21895 11.3334 7.66667 10.8856 7.66667 10.3334V6.33335C7.66667 5.78107 7.21895 5.33335 6.66667 5.33335ZM2 7.33335H1C0.447715 7.33335 0 7.78107 0 8.33335V10.3334C0 10.8856 0.447715 11.3334 1 11.3334H2C2.55228 11.3334 3 10.8856 3 10.3334V8.33335C3 7.78107 2.55228 7.33335 2 7.33335Z" fill="#384144"/>
</svg>
