<svg width="108" height="179" viewBox="0 0 108 179" fill="none" xmlns="http://www.w3.org/2000/svg">
<g clip-path="url(#clip0_19_1690)" filter="url(#filter0_d_19_1690)">
<path d="M97.5136 79.8676C97.2008 80.9944 96.1059 81.7231 95.0111 82.4969C92.626 84.1722 89.7912 85.4268 86.9075 86.5461C66.712 94.3816 41.9613 95.8691 21.3357 88.7248C17.7873 87.4927 14.3464 85.9977 11.4236 83.9994C10.2702 83.2106 7.33762 81.3926 7.04436 80.1455C6.68268 78.6806 10.7101 79.0187 12.0199 78.7783C12.1666 78.7482 12.323 78.7257 12.4696 78.6956C14.757 78.2899 17.103 78.042 19.4393 77.8768C35.148 76.7349 51.1695 79.0562 66.6827 76.81C74.2096 75.7207 81.6582 73.5496 89.2829 74.083C91.3454 74.2257 93.4471 74.5863 95.1089 75.5329C95.236 75.608 95.3533 75.6756 95.4706 75.7658C96.9368 76.7574 97.9046 78.4252 97.5038 79.86L97.5136 79.8676Z" fill="#75B8EB"/>
<g style="mix-blend-mode:multiply" opacity="0.5">
<path d="M97.5136 79.8676C97.2008 80.9945 96.1059 81.7232 95.0111 82.497C92.626 84.1723 89.7912 85.4268 86.9075 86.5462C66.712 94.3817 41.9613 95.8692 21.3357 88.7248C17.7873 87.4928 14.3464 85.9978 11.4236 83.9995C10.2702 83.2107 7.33762 81.3926 7.04436 80.1456C6.68268 78.6806 10.7101 79.0187 12.0199 78.7783C12.1666 78.7483 12.323 78.7257 12.4696 78.6957C13.2027 78.7933 13.9359 78.8835 14.6299 78.9436C18.2076 79.2666 21.7755 79.5746 25.3435 79.8676C29.3611 80.1982 33.3787 80.5062 37.406 80.7766C56.888 82.0838 77.3572 82.4219 95.0014 75.9386C95.1578 75.886 95.3141 75.8259 95.4803 75.7583C96.9466 76.7499 97.9143 78.4177 97.5136 79.8526V79.8676Z" fill="#75B8EB"/>
</g>
<path d="M97.5723 79.4995L95.9398 97.2364L90.9545 151.274C90.6808 154.264 88.0611 156.818 84.3563 157.757C56.6925 164.796 32.5967 160.814 20.065 157.569C16.3993 156.615 13.848 154.068 13.584 151.108L7.64073 86.6589L7.03467 80.1531C9.24386 80.3484 11.4628 80.7917 13.6525 80.972C17.7776 81.295 21.932 81.4452 26.0474 81.7007C33.8089 82.1815 41.541 82.9252 49.3123 83.1806C63.5938 83.6464 78.0708 83.1355 92.0396 80.6114C93.8968 80.2733 95.7346 79.9052 97.5625 79.4995H97.5723Z" fill="#68CEFF"/>
<g style="mix-blend-mode:multiply" opacity="0.5">
<path d="M95.9397 97.2365L90.9544 151.274C90.6807 154.264 88.061 156.818 84.3562 157.757C56.6924 164.796 32.5966 160.814 20.0649 157.569C16.3992 156.615 13.8479 154.068 13.5839 151.108L7.64062 86.6589C10.1919 94.2991 12.2252 102.044 13.711 109.85C14.9134 116.153 15.7833 122.508 17.9241 128.661C20.0746 134.806 23.6035 140.824 29.4393 145.346C35.2653 149.869 43.6426 152.724 51.8537 151.89C58.2076 151.244 63.9554 148.479 68.3835 144.918C72.8117 141.357 76.0668 137.038 78.9896 132.658C86.4872 121.442 92.1861 109.519 95.9397 97.244V97.2365Z" fill="#68CEFF"/>
</g>
<g style="mix-blend-mode:screen" opacity="0.5">
<path d="M59.6156 85.4869C49.3321 85.532 39.078 84.7883 28.8629 83.8642C25.3439 83.5487 21.7662 83.2032 18.2764 83.6839C16.5853 83.9168 14.8454 84.3826 13.7212 85.3818C12.5482 86.4185 12.2061 87.8909 12.4407 89.2507C12.685 90.6104 13.4475 91.88 14.2979 93.0895C17.7486 98.0102 22.8219 102.405 29.381 104.832C34.5521 106.747 40.3683 107.356 46.1063 107.581C51.0721 107.769 56.1454 107.671 60.8864 106.529C66.732 105.117 71.7564 102.18 76.2432 98.9643C80.73 95.749 84.7965 92.1956 89.4983 89.168C90.7887 88.3417 92.1474 87.5303 93.0174 86.426C93.6919 85.5846 94.6987 82.6322 92.4407 82.6322C91.2188 82.6322 89.8111 83.0529 88.6088 83.2407C87.3087 83.436 85.9988 83.6238 84.6889 83.7966C79.3517 84.4953 73.9754 84.9836 68.5795 85.2541C65.598 85.4043 62.6166 85.4794 59.6254 85.4945L59.6156 85.4869Z" fill="#9CF1FF"/>
</g>
<g style="mix-blend-mode:screen" opacity="0.5">
<path d="M31.7167 85.5395C28.6571 85.2766 25.4704 85.0062 22.5574 85.7724C21.8047 85.9753 20.9738 86.3509 20.9152 86.9594C20.8565 87.5904 21.6483 88.0637 22.3619 88.3792C28.0413 90.9109 34.5809 92.173 41.1302 92.4961C47.6796 92.8191 54.2681 92.2256 60.7001 91.2265C64.1312 90.6931 67.5916 90.0245 70.6708 88.7173C71.443 88.3868 73.1537 87.628 71.7559 87.0495C70.6024 86.5763 68.9895 86.7791 67.7578 86.8392C60.0256 87.2073 52.2739 86.9894 44.5613 86.5162C40.27 86.2532 35.9885 85.9076 31.7167 85.532V85.5395Z" fill="#9CF1FF"/>
</g>
<g style="mix-blend-mode:screen" opacity="0.5">
<path d="M76.6434 86.4936C76.2231 86.6288 75.8028 86.7941 75.5095 87.0646C75.2163 87.335 75.0794 87.7332 75.2945 88.0412C75.5682 88.4318 76.2426 88.522 76.8194 88.5445C77.6503 88.5746 78.4909 88.5746 79.3316 88.537C80.749 88.4694 82.1664 88.2966 83.4958 87.921C84.2778 87.7031 86.3306 87.1397 86.5261 86.4035C86.8389 85.1639 82.4988 85.4644 81.6972 85.5395C79.9768 85.7048 78.2466 85.9753 76.6434 86.5011V86.4936Z" fill="#9CF1FF"/>
</g>
<path opacity="0.19" d="M52.0001 1.87451C24.6101 1.87451 2.40088 6.8106 2.40088 12.8994C2.40088 13.0078 2.40088 13.1162 2.42043 13.2147L11.5798 152.864L12.1076 160.795C12.1076 160.795 12.6062 165.721 14.9522 167.238C15.0988 167.347 15.265 167.426 15.4312 167.495C16.9072 168.096 36.7215 170.47 52.0099 170.165C67.2982 170.47 87.1223 168.096 88.5886 167.495C88.9893 167.337 89.3412 167.081 89.654 166.756C91.5015 164.874 91.9219 160.785 91.9219 160.785L92.4009 153.474L101.58 13.2147C101.599 13.1063 101.599 12.998 101.599 12.8994C101.609 6.8106 79.3999 1.87451 52.0001 1.87451Z" fill="#9CCAFF"/>
<path opacity="0.33" d="M101.521 14.2295L92.4986 151.819L92.3911 153.484L91.9121 160.795C91.9121 160.795 91.9121 160.815 91.9121 160.844C91.9121 160.864 91.9121 160.884 91.9121 160.903C91.9121 160.933 91.9121 160.953 91.9121 160.992C91.9121 161.021 91.9121 161.061 91.8925 161.11C91.8925 161.14 91.8925 161.179 91.873 161.219C91.873 161.278 91.8534 161.327 91.8437 161.396C91.8437 161.435 91.8241 161.485 91.8241 161.534C91.8241 161.603 91.8046 161.682 91.785 161.76C91.785 161.81 91.7655 161.859 91.7655 161.908C91.7459 161.997 91.7361 162.076 91.7068 162.174C91.7068 162.204 91.6873 162.243 91.6873 162.283C91.6482 162.48 91.5895 162.687 91.5406 162.903C91.5406 162.962 91.5211 163.022 91.5015 163.081C91.482 163.179 91.4429 163.268 91.4136 163.376C91.4136 163.406 91.394 163.445 91.3842 163.485C91.3842 163.524 91.3647 163.563 91.3549 163.603C91.3256 163.701 91.2962 163.79 91.2571 163.898C91.2278 163.977 91.1985 164.056 91.1692 164.145C91.1398 164.243 91.1007 164.332 91.0616 164.421C91.0225 164.509 90.9932 164.598 90.9541 164.696C90.9248 164.785 90.8857 164.874 90.8466 164.962L90.7 165.248C90.6609 165.327 90.6315 165.396 90.5924 165.485C90.5045 165.652 90.4067 165.81 90.309 165.967C90.2894 165.997 90.2699 166.027 90.2503 166.056C90.1623 166.184 90.0646 166.312 89.9766 166.421C89.9375 166.47 89.8984 166.519 89.8593 166.559C89.7909 166.628 89.742 166.706 89.6736 166.765V166.746C89.3608 167.061 89.0186 167.337 88.6081 167.495C87.1418 168.096 67.3177 170.47 52.0294 170.165C36.741 170.47 16.9267 168.096 15.4507 167.495C14.9913 167.307 14.5905 166.982 14.2483 166.588C14.2288 166.568 14.1897 166.529 14.1701 166.509C14.0822 166.401 14.004 166.283 13.916 166.174C13.8867 166.125 13.8573 166.086 13.828 166.046C13.7498 165.938 13.6814 165.81 13.6032 165.692C13.5836 165.632 13.5445 165.583 13.5152 165.544C13.4566 165.426 13.3881 165.297 13.3295 165.179C13.3099 165.12 13.2806 165.071 13.2513 165.012C13.1926 164.884 13.1438 164.756 13.0949 164.627C13.0753 164.568 13.046 164.519 13.0265 164.46L12.8798 164.076C12.8603 164.017 12.8407 163.958 12.8212 163.898C12.7723 163.77 12.7332 163.642 12.7039 163.524C12.6843 163.465 12.6648 163.406 12.6452 163.347C12.6257 163.288 12.6159 163.228 12.5963 163.169C12.5768 163.1 12.5572 163.031 12.5475 162.982C12.5279 162.933 12.5181 162.874 12.4986 162.824C12.479 162.706 12.4399 162.588 12.4204 162.48C12.4204 162.43 12.4008 162.381 12.3911 162.332C12.3715 162.223 12.3422 162.115 12.3324 162.017C12.3129 161.967 12.3129 161.928 12.3031 161.889C12.2835 161.79 12.2738 161.701 12.2542 161.613C12.2542 161.573 12.2347 161.544 12.2347 161.504C12.2151 161.425 12.2053 161.347 12.1956 161.278C12.1956 161.238 12.1956 161.219 12.176 161.179C12.176 161.12 12.1565 161.061 12.1565 161.012C12.1565 160.982 12.1565 160.962 12.1565 160.933C12.1565 160.913 12.1565 160.874 12.1565 160.854C12.1565 160.815 12.1565 160.795 12.1565 160.795L11.6286 152.864L11.5309 151.396L2.43994 13.5891C2.58657 14.0522 2.80162 14.4955 3.09488 14.8896C3.1242 14.9192 3.15353 14.9586 3.19263 14.998L3.21218 15.0177C3.46633 15.2936 3.73026 15.5498 3.98442 15.8256C3.98442 15.8256 3.98442 15.8256 4.00397 15.8453C4.00397 15.8453 4.02352 15.8453 4.02352 15.865C4.04307 15.865 4.16037 15.9439 4.307 16.0424L13.5836 147.819C13.8573 151.701 16.4087 155.041 20.0646 156.292C32.5963 160.549 56.6921 165.77 84.3559 156.539C88.0607 155.307 90.6706 151.957 90.9541 148.036L100.299 15.1852C100.661 14.9783 101.013 14.7418 101.306 14.4266C101.374 14.3675 101.453 14.2985 101.521 14.2394V14.2295Z" fill="#A7C0FF"/>
<path opacity="0.33" d="M45.9198 165.83C44.6002 166.706 42.9482 166.825 41.3744 166.894C35.0596 167.15 28.7253 166.943 22.4399 166.283C19.5855 165.977 16.6628 165.564 14.131 164.194C13.5836 163.898 13.0655 163.554 12.567 163.179C12.5474 163.11 12.5279 163.041 12.5181 162.992C12.4985 162.943 12.4888 162.884 12.4692 162.834C12.4497 162.716 12.4106 162.598 12.391 162.49C12.391 162.44 12.3715 162.391 12.3617 162.342C12.3421 162.233 12.3128 162.125 12.303 162.026C12.2835 161.977 12.2835 161.938 12.2737 161.898C12.2542 161.8 12.2444 161.711 12.2248 161.623C12.2248 161.583 12.2053 161.554 12.2053 161.514C12.1857 161.435 12.176 161.357 12.1662 161.288C12.1662 161.248 12.1662 161.228 12.1466 161.189C12.1466 161.13 12.1271 161.071 12.1271 161.022C12.1271 160.992 12.1271 160.972 12.1271 160.943C12.1271 160.923 12.1271 160.884 12.1271 160.864C12.1271 160.824 12.1271 160.805 12.1271 160.805L11.5992 152.874L11.5015 151.406C11.8436 151.809 12.1955 152.194 12.5767 152.568C15.9589 155.957 20.3187 158.253 24.8055 159.79C31.218 161.997 38.0117 162.844 44.5806 164.529C45.2551 164.706 46.086 165.15 45.9296 165.83H45.9198Z" fill="#A7FFFF"/>
<path opacity="0.33" d="M92.4984 151.819L92.3908 153.484L91.9119 160.795C91.9119 160.795 91.9119 160.815 91.9119 160.844C91.9119 160.864 91.9119 160.884 91.9119 160.903C91.9119 160.933 91.9119 160.953 91.9119 160.992C91.9119 161.022 91.9119 161.061 91.8923 161.11C91.8923 161.14 91.8923 161.179 91.8728 161.219C91.8728 161.278 91.8532 161.327 91.8434 161.396C91.8434 161.435 91.8239 161.485 91.8239 161.534C91.8239 161.603 91.8043 161.682 91.7848 161.76C91.7848 161.81 91.7652 161.859 91.7652 161.908C91.7457 161.997 91.7359 162.076 91.7066 162.174C91.7066 162.204 91.687 162.243 91.687 162.283C91.6479 162.48 91.5893 162.687 91.5404 162.903C91.5404 162.962 91.5208 163.022 91.5013 163.081C91.4817 163.179 91.4426 163.268 91.4133 163.376C91.4133 163.406 91.3938 163.445 91.384 163.485C91.0223 163.741 90.6509 163.977 90.2599 164.184C87.7281 165.564 84.8053 165.977 81.951 166.273C75.6655 166.923 69.3312 167.14 63.0067 166.884C61.4329 166.825 59.7809 166.697 58.4612 165.82C58.295 165.14 59.1357 164.697 59.8102 164.519C66.3791 162.834 73.1729 161.987 79.5854 159.78C84.0624 158.233 88.4221 155.948 91.8141 152.558C92.0487 152.322 92.2931 152.076 92.5179 151.819H92.4984Z" fill="#A7FFFF"/>
<path d="M101.609 12.8994C101.609 13.0078 101.609 13.1162 101.59 13.2147C100.837 19.1557 78.9307 23.9342 52.0099 23.9342C25.089 23.9342 3.17312 19.1656 2.42043 13.2147C2.40088 13.1063 2.40088 12.998 2.40088 12.8994C2.40088 6.8106 24.6101 1.87451 52.0001 1.87451C79.3901 1.87451 101.599 6.8106 101.599 12.8994H101.609Z" stroke="white" stroke-width="0.81" stroke-miterlimit="10"/>
<path d="M52.0001 1.87451C24.6101 1.87451 2.40088 6.8106 2.40088 12.8994C2.40088 13.0078 2.40088 13.1162 2.42043 13.2147L11.5798 152.864L12.1076 160.795C12.1076 160.795 12.6062 165.721 14.9522 167.238C15.0988 167.347 15.265 167.426 15.4312 167.495C16.9072 168.096 36.7215 170.47 52.0099 170.165C67.2982 170.47 87.1223 168.096 88.5886 167.495C88.9893 167.337 89.3412 167.081 89.654 166.756C91.5016 164.874 91.9219 160.785 91.9219 160.785L92.4009 153.474L101.58 13.2147C101.599 13.1063 101.599 12.998 101.599 12.8994C101.609 6.8106 79.3999 1.87451 52.0001 1.87451Z" stroke="white" stroke-width="0.81" stroke-miterlimit="10"/>
<path opacity="0.19" d="M96.8387 17.6187L89.3998 152.647C88.2267 154.44 86.4672 155.829 84.3558 156.529C80.6901 157.75 77.0733 158.726 73.5444 159.475L79.8494 22.0228C94.1603 21.5597 96.8387 17.6089 96.8387 17.6089V17.6187Z" fill="#9CCAFF"/>
<path opacity="0.19" d="M30.3578 159.159C27.6501 158.548 25.1867 157.888 22.9873 157.218C21.9609 156.903 20.9834 156.598 20.0743 156.282C19.6735 156.144 19.3021 155.987 18.9306 155.8L8.95996 18.3872L14.131 19.6582L23.1144 21.875L30.3578 159.169V159.159Z" fill="#9CCAFF"/>
<path opacity="0.19" d="M22.9873 157.218C21.9609 156.903 20.9834 156.598 20.0743 156.282C19.6735 156.144 19.3021 155.987 18.9306 155.8L8.95996 18.3872L14.131 19.6582C14.61 24.8504 20.8466 122.587 22.9873 157.218Z" fill="#9CCAFF"/>
</g>
<defs>
<filter id="filter0_d_19_1690" x="0" y="0" width="108" height="178.588" filterUnits="userSpaceOnUse" color-interpolation-filters="sRGB">
<feFlood flood-opacity="0" result="BackgroundImageFix"/>
<feColorMatrix in="SourceAlpha" type="matrix" values="0 0 0 0 0 0 0 0 0 0 0 0 0 0 0 0 0 0 127 0" result="hardAlpha"/>
<feOffset dx="2" dy="4"/>
<feGaussianBlur stdDeviation="2"/>
<feComposite in2="hardAlpha" operator="out"/>
<feColorMatrix type="matrix" values="0 0 0 0 0 0 0 0 0 0 0 0 0 0 0 0 0 0 0.25 0"/>
<feBlend mode="normal" in2="BackgroundImageFix" result="effect1_dropShadow_19_1690"/>
<feBlend mode="normal" in="SourceGraphic" in2="effect1_dropShadow_19_1690" result="shape"/>
</filter>
<clipPath id="clip0_19_1690">
<rect width="100" height="170.588" fill="white" transform="translate(2)"/>
</clipPath>
</defs>
</svg>
