<svg width="95" height="86" viewBox="0 0 95 86" fill="none" xmlns="http://www.w3.org/2000/svg">
<path d="M68.4688 5.19115C80.0623 5.19115 88.8873 14.0161 88.8873 25.6097C88.8873 40.664 75.0442 53.8149 50.4728 75.4447L50.2997 75.6178L50.1267 75.7908L47.3581 78.5594L44.4164 75.6178L44.2434 75.4447L44.0703 75.2717C19.6719 53.8149 5.82885 40.664 5.82885 25.6097C5.82885 13.8431 14.6538 5.01811 26.4204 5.01811C32.8228 5.01811 39.3983 8.1328 43.5512 12.9779L47.5311 17.6499L51.511 12.9779C55.4909 8.1328 62.0663 5.19115 68.4688 5.19115ZM68.4688 0C60.509 0 52.5492 3.80684 47.3581 9.86319C42.1669 3.80684 34.2071 0 26.4204 0C11.8852 0 0.637695 11.0745 0.637695 25.6097C0.637695 43.4326 16.5572 57.7948 40.7826 79.4246L47.3581 86.0001L53.9335 79.4246C78.1589 57.7948 94.0784 43.4326 94.0784 25.6097C94.0784 11.0745 82.8309 0 68.4688 0Z" fill="#FE8080"/>
</svg>
