<svg width="20" height="20" viewBox="0 0 20 20" fill="none" xmlns="http://www.w3.org/2000/svg">
<rect width="20" height="20" fill="white"/>
<path fill-rule="evenodd" clip-rule="evenodd" d="M4.58192 6.32949C4.23095 3.52171 6.42027 1.04169 9.2499 1.04169H10.669C13.5016 1.04169 15.6933 3.52433 15.3419 6.33509L15.2881 6.76586C15.1839 7.59929 15.4869 8.43196 16.1023 9.00352L16.1389 9.03749C17.4833 10.286 17.7442 12.3166 16.7591 13.8645C16.1153 14.8761 15.0359 15.5196 13.852 15.6132L13.6926 15.8864C12.8486 17.3332 11.5336 18.125 10.1527 18.125C8.77189 18.125 7.45688 17.3332 6.61288 15.8864L6.45599 15.6174C5.04657 15.5297 3.78402 14.6902 3.16223 13.4083L3.0761 13.2308C2.37056 11.7763 2.70064 10.0313 3.8887 8.93498C4.46205 8.4059 4.74482 7.63266 4.64805 6.85853L4.58192 6.32949ZM7.93336 15.625C8.56615 16.4898 9.38513 16.875 10.1527 16.875C10.9204 16.875 11.7393 16.4898 12.3721 15.625H7.93336Z" fill="#5DCCFC"/>
</svg>
