<svg width="20" height="20" viewBox="0 0 20 20" fill="none" xmlns="http://www.w3.org/2000/svg">
<path fill-rule="evenodd" clip-rule="evenodd" d="M1.6665 8.33337C1.6665 4.19124 5.02437 0.833374 9.1665 0.833374C13.3086 0.833374 16.6665 4.19124 16.6665 8.33337C16.6665 12.4755 13.3086 15.8334 9.1665 15.8334C5.02437 15.8334 1.6665 12.4755 1.6665 8.33337ZM8.29864 3.28687C8.35263 3.6278 8.12003 3.94795 7.7791 4.00195C6.26365 4.24197 5.0751 5.43052 4.83508 6.94597C4.78108 7.2869 4.46093 7.5195 4.12 7.46551C3.77907 7.41151 3.54647 7.09136 3.60047 6.75043C3.92521 4.70011 5.53324 3.09208 7.58356 2.76734C7.92449 2.71334 8.24464 2.94594 8.29864 3.28687Z" fill="#62CDFA"/>
<path d="M15.3912 14.5581C15.6353 14.314 16.031 14.314 16.2751 14.5581L19.6084 17.8914C19.8524 18.1355 19.8524 18.5312 19.6084 18.7753C19.3643 19.0193 18.9685 19.0193 18.7245 18.7753L15.3912 15.442C15.1472 15.1979 15.1472 14.8022 15.3912 14.5581Z" fill="#62CDFA"/>
</svg>
