<svg width="156" height="237" viewBox="0 0 156 237" fill="none" xmlns="http://www.w3.org/2000/svg">
<mask id="mask0_19_1110" style="mask-type:alpha" maskUnits="userSpaceOnUse" x="0" y="-1" width="156" height="238">
<rect x="0.5" y="-0.5" width="155" height="237" rx="18.5" fill="#369FFF" stroke="black"/>
</mask>
<g mask="url(#mask0_19_1110)">
<path d="M49.8956 170.887C-2.73134 189.091 -48.7007 131.195 -92.7679 149.698C-119.081 155.666 -172.216 168.26 -174.245 170.887C-176.274 173.513 -178.26 231.668 -179 260.417L211.898 321C238.528 290.062 284.244 219.353 254.063 184.018C216.336 139.849 102.523 152.682 49.8956 170.887Z" fill="#5DCCFC" fill-opacity="0.45"/>
<path d="M108.21 171.047C64.0179 186.443 25.4161 137.479 -11.5883 153.127C-33.6846 158.175 -78.3029 168.826 -80.0067 171.047C-81.7105 173.268 -83.3788 222.451 -84 246.764L244.248 298C266.611 271.835 305 212.035 279.656 182.152C247.975 144.798 152.403 155.651 108.21 171.047Z" fill="#5DCCFC" fill-opacity="0.45"/>
</g>
</svg>
