<svg width="24" height="24" viewBox="0 0 24 24" fill="none" xmlns="http://www.w3.org/2000/svg">
<g clip-path="url(#clip0_19_1060)">
<g clip-path="url(#clip1_19_1060)">
<path d="M11.5384 15C13.1316 15 14.423 13.6569 14.423 12C14.423 10.3431 13.1316 9 11.5384 9C9.94529 9 8.65381 10.3431 8.65381 12C8.65381 13.6569 9.94529 15 11.5384 15Z" stroke="black" stroke-width="2" stroke-linecap="round" stroke-linejoin="round"/>
<path d="M18.6537 15C18.5257 15.3016 18.4876 15.6362 18.5441 15.9606C18.6007 16.285 18.7494 16.5843 18.971 16.82L19.0287 16.88C19.2075 17.0657 19.3494 17.2863 19.4462 17.5291C19.5429 17.7719 19.5927 18.0322 19.5927 18.295C19.5927 18.5578 19.5429 18.8181 19.4462 19.0609C19.3494 19.3037 19.2075 19.5243 19.0287 19.71C18.8501 19.896 18.638 20.0435 18.4046 20.1441C18.1711 20.2448 17.9209 20.2966 17.6682 20.2966C17.4154 20.2966 17.1652 20.2448 16.9317 20.1441C16.6983 20.0435 16.4862 19.896 16.3076 19.71L16.2499 19.65C16.0233 19.4195 15.7354 19.2648 15.4235 19.206C15.1116 19.1472 14.7899 19.1869 14.4999 19.32C14.2155 19.4468 13.9729 19.6572 13.8021 19.9255C13.6313 20.1938 13.5396 20.5082 13.5383 20.83V21C13.5383 21.5304 13.3357 22.0391 12.9751 22.4142C12.6144 22.7893 12.1253 23 11.6153 23C11.1052 23 10.6161 22.7893 10.2555 22.4142C9.8948 22.0391 9.6922 21.5304 9.6922 21V20.91C9.68475 20.579 9.58173 20.258 9.39653 19.9887C9.21133 19.7194 8.95252 19.5143 8.65373 19.4C8.36372 19.2669 8.04201 19.2272 7.73009 19.286C7.41817 19.3448 7.13035 19.4995 6.90373 19.73L6.84604 19.79C6.66744 19.976 6.45535 20.1235 6.22189 20.2241C5.98843 20.3248 5.73819 20.3766 5.48546 20.3766C5.23274 20.3766 4.9825 20.3248 4.74904 20.2241C4.51558 20.1235 4.30349 19.976 4.12489 19.79C3.94609 19.6043 3.80424 19.3837 3.70746 19.1409C3.61069 18.8981 3.56087 18.6378 3.56087 18.375C3.56087 18.1122 3.61069 17.8519 3.70746 17.6091C3.80424 17.3663 3.94609 17.1457 4.12489 16.96L4.18258 16.9C4.40425 16.6643 4.55295 16.365 4.60951 16.0406C4.66606 15.7162 4.62788 15.3816 4.49989 15.08C4.378 14.7842 4.17561 14.532 3.91764 14.3543C3.65967 14.1766 3.35737 14.0813 3.04796 14.08H2.8845C2.37447 14.08 1.88533 13.8693 1.52468 13.4942C1.16404 13.1191 0.961426 12.6104 0.961426 12.08C0.961426 11.5496 1.16404 11.0409 1.52468 10.6658C1.88533 10.2907 2.37447 10.08 2.8845 10.08H2.97104C3.28931 10.0723 3.59797 9.96512 3.85691 9.77251C4.11584 9.5799 4.31308 9.31074 4.42296 9C4.55096 8.69838 4.58914 8.36381 4.53258 8.03941C4.47603 7.71502 4.32733 7.41568 4.10566 7.18L4.04796 7.12C3.86916 6.93425 3.72732 6.71368 3.63054 6.47088C3.53376 6.22808 3.48395 5.96783 3.48395 5.705C3.48395 5.44217 3.53376 5.18192 3.63054 4.93912C3.72732 4.69632 3.86916 4.47575 4.04796 4.29C4.22657 4.10405 4.43866 3.95653 4.67212 3.85588C4.90558 3.75523 5.15582 3.70343 5.40854 3.70343C5.66126 3.70343 5.91151 3.75523 6.14496 3.85588C6.37842 3.95653 6.59052 4.10405 6.76912 4.29L6.82681 4.35C7.05343 4.58054 7.34125 4.73519 7.65317 4.794C7.96509 4.85282 8.2868 4.81312 8.57681 4.68H8.65373C8.93813 4.55324 9.18067 4.34276 9.35152 4.07447C9.52236 3.80618 9.61404 3.49179 9.61527 3.17V3C9.61527 2.46957 9.81788 1.96086 10.1785 1.58579C10.5392 1.21071 11.0283 1 11.5383 1C12.0484 1 12.5375 1.21071 12.8982 1.58579C13.2588 1.96086 13.4614 2.46957 13.4614 3V3.09C13.4627 3.41179 13.5543 3.72618 13.7252 3.99447C13.896 4.26276 14.1386 4.47324 14.423 4.6C14.713 4.73312 15.0347 4.77282 15.3466 4.714C15.6585 4.65519 15.9463 4.50054 16.173 4.27L16.2307 4.21C16.4093 4.02405 16.6214 3.87653 16.8548 3.77588C17.0883 3.67523 17.3385 3.62343 17.5912 3.62343C17.844 3.62343 18.0942 3.67523 18.3277 3.77588C18.5611 3.87653 18.7732 4.02405 18.9518 4.21C19.1306 4.39575 19.2725 4.61632 19.3692 4.85912C19.466 5.10192 19.5158 5.36217 19.5158 5.625C19.5158 5.88783 19.466 6.14808 19.3692 6.39088C19.2725 6.63368 19.1306 6.85425 18.9518 7.04L18.8941 7.1C18.6724 7.33568 18.5237 7.63502 18.4672 7.95941C18.4106 8.28381 18.4488 8.61838 18.5768 8.92V9C18.6987 9.29577 18.9011 9.54802 19.1591 9.72569C19.417 9.90337 19.7193 9.99872 20.0287 10H20.1922C20.7022 10 21.1914 10.2107 21.552 10.5858C21.9127 10.9609 22.1153 11.4696 22.1153 12C22.1153 12.5304 21.9127 13.0391 21.552 13.4142C21.1914 13.7893 20.7022 14 20.1922 14H20.1057C19.7962 14.0013 19.494 14.0966 19.236 14.2743C18.978 14.452 18.7756 14.7042 18.6537 15Z" stroke="black" stroke-width="2" stroke-linecap="round" stroke-linejoin="round"/>
</g>
</g>
<defs>
<clipPath id="clip0_19_1060">
<rect width="24" height="24" fill="white"/>
</clipPath>
<clipPath id="clip1_19_1060">
<rect width="23.0769" height="24" fill="white"/>
</clipPath>
</defs>
</svg>
