<svg width="107" height="105" viewBox="0 0 107 105" fill="none" xmlns="http://www.w3.org/2000/svg">
<path fill-rule="evenodd" clip-rule="evenodd" d="M105.982 83.4145C104.241 80.9062 100.668 80.5794 98.2702 82.4694C88.9886 89.7848 77.273 94.1497 64.538 94.1497C34.4175 94.1497 10 69.7322 10 39.6117C10 28.3241 13.4291 17.8374 19.3024 9.13649C20.7418 7.00414 20.6061 4.12044 18.7869 2.30128C16.6882 0.202494 13.2236 0.353516 11.5282 2.78975C4.26073 13.2326 0 25.9246 0 39.6117C0 75.255 28.8947 104.15 64.538 104.15C79.9463 104.15 94.0935 98.75 105.19 89.7397C107.098 88.191 107.383 85.4328 105.982 83.4145Z" fill="#5DCCFC"/>
</svg>
